<?xml version="1.0" encoding="utf-8"?>
<!-- Generator: Adobe Illustrator 27.0.0, SVG Export Plug-In . SVG Version: 6.00 Build 0)  -->
<svg version="1.1" id="Layer_1" xmlns="http://www.w3.org/2000/svg" xmlns:xlink="http://www.w3.org/1999/xlink" x="0px" y="0px"
	 viewBox="0 0 1920.2 1054.9" style="enable-background:new 0 0 1920.2 1054.9;" xml:space="preserve">
<style type="text/css">
	.st0{opacity:0.11;fill:url(#Path_195_00000168111549857101252000000017046525843880348812_);enable-background:new    ;}
	.st1{fill:#414042;}
</style>
<g id="Group_111" transform="translate(0.13 -6328.591)">
	
		<linearGradient id="Path_195_00000180366020070993663380000005214812375430351272_" gradientUnits="userSpaceOnUse" x1="360.1825" y1="7154.8062" x2="360.1825" y2="7155.8062" gradientTransform="matrix(1920.193 0 0 -1054.854 -690660 7554659)">
		<stop  offset="0" style="stop-color:#361CC1"/>
		<stop  offset="1" style="stop-color:#2E82EF"/>
	</linearGradient>
	
		<path id="Path_195" style="opacity:0.11;fill:url(#Path_195_00000180366020070993663380000005214812375430351272_);enable-background:new    ;" d="
		M1920.1,7003.8c0,0-85.9-337.8-386.7-270.2c-300.8,67.5-439.4,0-538.3-145.2s-352-127-574.6-79.2s-302.4-21.5-420.6-180.6
		c0,0,0.1,1054.9,0.1,1054.9H1920L1920.1,7003.8z"/>
	<path id="Path_194" class="st1" d="M1920,7003.9c0,0-86.3-291.5-385.9-226.4c-299.6,65.1-437.7,0-536.1-139.9
		c-98.5-139.9-348.5-144.6-576.5-88.3c-228,56.3-380-116.5-421.4-220.6c0.1,8,0,1054.7,0,1054.7h1920L1920,7003.9z"/>
</g>
</svg>
